<svg width="200" height="50" viewBox="0 0 200 50" fill="none" xmlns="http://www.w3.org/2000/svg">
  <path d="M20.6 33H15.4V19.5H9.8V33H4.6V12.5H9.8V15.5C10.6667 14.5 11.7 13.75 12.9 13.25C14.1 12.75 15.3667 12.5 16.7 12.5C19.3 12.5 20.6 13.9 20.6 16.7V33ZM41.1078 33H35.9078V19.4C35.9078 18.4667 35.6745 17.75 35.2078 17.25C34.7411 16.75 34.0411 16.5 33.1078 16.5C32.1078 16.5 31.2745 16.8333 30.6078 17.5C29.9411 18.1667 29.6078 19.0333 29.6078 20.1V33H24.4078V12.5H29.6078V15.3C30.2745 14.3667 31.1745 13.6667 32.3078 13.2C33.4411 12.7333 34.6745 12.5 36.0078 12.5C37.6745 12.5 39.0078 13 40.0078 14C41.0078 15 41.5078 16.4 41.5078 18.2L41.1078 33ZM53.0156 33.5C51.2823 33.5 49.7323 33.0833 48.3656 32.25C47.0323 31.4167 45.9989 30.2333 45.2656 28.7C44.5323 27.1667 44.1656 25.4 44.1656 23.4C44.1656 21.4 44.5323 19.6333 45.2656 18.1C45.9989 16.5667 47.0323 15.3833 48.3656 14.55C49.7323 13.7167 51.2823 13.3 53.0156 13.3C55.4156 13.3 57.3323 14.0333 58.7656 15.5C60.1989 16.9667 60.9156 19.0333 60.9156 21.7V22.8H49.1656C49.2989 24.4 49.7489 25.6333 50.5156 26.5C51.2823 27.3667 52.3323 27.8 53.6656 27.8C54.5989 27.8 55.4156 27.5833 56.1156 27.15C56.8156 26.7167 57.2823 26.1167 57.5156 25.35H60.7156C60.2823 27.25 59.3323 28.7167 57.8656 29.75C56.3989 30.7833 54.6156 31.3 52.5156 31.3L53.0156 33.5ZM53.0156 19C51.9156 19 50.9489 19.3333 50.1156 20C49.2823 20.6667 48.7323 21.6667 48.4656 23H56.8656C56.7989 21.6667 56.3989 20.6667 55.6656 20C54.9323 19.3333 54.0489 19 53.0156 19ZM73.4234 33.5C71.5567 33.5 69.9401 33.0833 68.5734 32.25C67.2067 31.4167 66.1401 30.25 65.3734 28.75C64.6401 27.25 64.2734 25.55 64.2734 23.65C64.2734 21.75 64.6401 20.05 65.3734 18.55C66.1401 17.05 67.2067 15.8833 68.5734 15.05C69.9401 14.2167 71.5567 13.8 73.4234 13.8C75.5234 13.8 77.2901 14.3667 78.7234 15.5C80.1567 16.6333 81.0567 18.2 81.4234 20.2H76.4734C76.3067 19.2667 75.8734 18.5333 75.1734 18C74.5067 17.4667 73.6734 17.2 72.6734 17.2C71.3401 17.2 70.2901 17.7167 69.5234 18.75C68.7567 19.7833 68.3734 21.3167 68.3734 23.35C68.3734 25.3833 68.7567 26.9167 69.5234 27.95C70.2901 28.9833 71.3401 29.5 72.6734 29.5C74.7401 29.5 76.0067 28.4667 76.4734 26.4H81.3734C81.0401 28.4 80.1567 30 78.7234 31.2C77.2901 32.4 75.5234 33 73.4234 33V33.5ZM88.4312 25L93.3312 12.5H99.1312L91.5812 30.5L85.7812 12.5H91.9312L88.4312 25ZM104.939 33H99.7391V12.5H104.939V33ZM102.339 9.5C101.339 9.5 100.522 9.18333 99.8891 8.55C99.2557 7.91667 98.9391 7.1 98.9391 6.1C98.9391 5.1 99.2557 4.28333 99.8891 3.65C100.522 3.01667 101.339 2.7 102.339 2.7C103.339 2.7 104.155 3.01667 104.789 3.65C105.422 4.28333 105.739 5.1 105.739 6.1C105.739 7.1 105.422 7.91667 104.789 8.55C104.155 9.18333 103.339 9.5 102.339 9.5ZM127.147 21.3C127.147 22.9 126.814 24.3333 126.147 25.6C125.481 26.8667 124.547 27.8667 123.347 28.6C122.147 29.3333 120.747 29.7 119.147 29.7C117.681 29.7 116.431 29.3333 115.397 28.6C114.364 27.8667 113.631 26.9 113.197 25.7V33H107.997V5H113.197V16.7C113.631 15.5 114.364 14.5333 115.397 13.8C116.431 13.0667 117.681 12.7 119.147 12.7C120.747 12.7 122.147 13.0667 123.347 13.8C124.547 14.5333 125.481 15.5333 126.147 16.8C126.814 18.0667 127.147 19.5 127.147 21.1V21.3ZM121.947 21.1C121.947 19.7 121.564 18.6 120.797 17.8C120.031 17 119.081 16.6 117.947 16.6C116.814 16.6 115.864 17 115.097 17.8C114.331 18.6 113.947 19.7 113.947 21.1C113.947 22.5 114.331 23.6 115.097 24.4C115.864 25.2 116.814 25.6 117.947 25.6C119.081 25.6 120.031 25.2 120.797 24.4C121.564 23.6 121.947 22.5 121.947 21.1Z" fill="white"/>
  <path d="M176 17L158 43" stroke="white" stroke-width="4"/>
</svg>
